<svg version="1.2" xmlns="http://www.w3.org/2000/svg" viewBox="0 0 368 369" width="368" height="369">
	<title>Group 6-svg</title>
	<style>
		.s0 { fill: #ededed } 
	</style>
	<path id="Layer" class="s0" d="m0 154c30.5 0 60.6 5.6 88.8 16.4c28.1 10.8 53.7 26.7 75.2 46.7c21.6 20 38.7 43.8 50.3 69.9c11.7 26.2 17.7 54.2 17.7 82.5h-104c0-15.6-3.3-31.1-9.8-45.5c-6.4-14.4-15.8-27.5-27.7-38.6c-11.9-11-26-19.8-41.5-25.7c-15.5-6-32.2-9.1-49-9.1z" />
	<path id="Layer" class="s0" d="m317 100c-27.6 0-50-22.3-50-50c0-27.7 22.4-50 50-50c27.6 0 50 22.3 50 50c0 27.7-22.4 50-50 50z" />
</svg>