<svg xmlns="http://www.w3.org/2000/svg" width="500" height="543" fill="none" viewBox="0 0 500 543"><rect width="600" height="200" x="70.893" y="349.259" fill="url(#paint0_linear_2_155)" rx="5" transform="rotate(-25 70.8931 349.259)"/><g filter="url(#filter0_d_2_155)"><rect width="600" height="200" x="70.893" y="349.259" fill="url(#paint1_linear_2_155)" rx="5" transform="rotate(-25 70.8931 349.259)"/></g><path fill="#000" fill-opacity=".25" d="M131.353 321.065L165.149 305.306L117.592 449.406L100.476 412.7L131.353 321.065Z"/><path fill="#000" fill-opacity=".25" d="M195.077 291.351L227.684 276.146L153.304 525.989L132.807 482.033L195.077 291.351Z"/><path fill="#fff" d="M91.2345 371.131L100.914 366.618L99.6054 363.812L93.1017 366.844L91.6107 363.647L97.1356 361.071L95.8475 358.308L90.3226 360.885L88.7302 357.47L95.0381 354.528L93.7297 351.722L84.2461 356.145L91.2345 371.131ZM102.386 353.565L100.57 349.671L97.5684 351.071L99.3839 354.964L97.5351 355.827L98.6508 358.219L100.5 357.357L104.121 365.122L107.122 363.723L103.501 355.957L105.633 354.963L104.517 352.571L102.386 353.565ZM110.33 349.86L108.514 345.967L105.513 347.366L107.328 351.26L105.479 352.122L106.595 354.515L108.444 353.653L112.065 361.418L115.067 360.018L111.446 352.253L113.577 351.259L112.462 348.866L110.33 349.86ZM125.063 350.458L130.333 352.899L134.052 351.165L126.337 347.851L128.467 341.403L124.617 343.198L123.501 347.108L119.627 338.799L116.625 340.199L123.938 355.881L126.94 354.482L125.063 350.458ZM138.085 345.895C136.845 346.473 135.375 346.046 134.716 344.632C134.067 343.24 134.685 341.84 135.925 341.262C137.208 340.663 138.656 341.1 139.305 342.492C139.965 343.906 139.368 345.296 138.085 345.895ZM139.465 348.853C142.336 347.514 143.776 344.3 142.285 341.103C140.784 337.884 137.416 336.965 134.545 338.304C131.652 339.653 130.235 342.803 131.736 346.022C133.227 349.219 136.572 350.202 139.465 348.853ZM154.591 332.531C155.483 332.115 156.591 332.446 157.209 333.773L159.735 339.189L162.737 337.789L160.049 332.025C158.619 328.958 156.419 328.104 153.983 329.24C153.244 329.584 152.04 330.411 151.78 332.465C150.656 331.532 149.295 331.452 147.685 332.203C146.576 332.72 145.816 333.816 145.813 335.115L145.123 333.636L142.1 335.046L146.836 345.204L149.86 343.794L147.354 338.421C146.634 336.877 147.217 335.969 148.153 335.533C149.023 335.128 150.11 335.415 150.74 336.71L153.296 342.191L156.32 340.781L153.815 335.409C153.125 333.93 153.634 332.977 154.591 332.531ZM166.115 330.07C165.426 328.591 166.035 327.115 167.318 326.517C168.602 325.918 170.114 326.378 170.814 327.879C171.503 329.358 170.895 330.781 169.59 331.389C168.372 331.957 166.825 331.593 166.115 330.07ZM160.665 326.389L167.724 341.528L170.726 340.128L167.825 333.907C168.761 334.609 170.201 334.573 171.484 333.975C174.095 332.758 175.437 329.616 173.915 326.353C172.414 323.134 169.155 322.165 166.545 323.382C165.262 323.98 164.319 325.082 164.255 326.251L163.666 324.989L160.665 326.389ZM171.173 314.762L178.486 330.445L181.51 329.035L174.197 313.352L171.173 314.762ZM189.858 321.064C189.672 321.972 188.934 322.66 188.085 323.056C186.998 323.563 185.514 323.619 184.793 322.526L192.232 319.057C192.132 318.786 191.961 318.362 191.839 318.101C190.348 314.904 187.038 313.826 184.145 315.175C181.252 316.524 179.791 319.694 181.293 322.913C182.784 326.111 186.192 327.117 189.085 325.768C190.825 324.956 192.42 323.55 192.754 321.541L189.858 321.064ZM183.954 320.613C183.585 319.197 184.578 318.204 185.405 317.818C186.275 317.413 187.595 317.406 188.348 318.564L183.954 320.613ZM203.999 309.492C204.891 309.076 205.999 309.407 206.617 310.734L209.143 316.15L212.144 314.75L209.457 308.986C208.027 305.919 205.827 305.064 203.391 306.2C202.652 306.545 201.448 307.371 201.188 309.426C200.064 308.493 198.703 308.413 197.093 309.163C195.984 309.681 195.224 310.777 195.221 312.076L194.531 310.597L191.508 312.007L196.244 322.164L199.268 320.755L196.762 315.382C196.042 313.838 196.625 312.93 197.561 312.494C198.431 312.088 199.518 312.376 200.148 313.671L202.704 319.152L205.728 317.742L203.223 312.37C202.533 310.89 203.042 309.938 203.999 309.492ZM220.382 306.831C220.196 307.738 219.458 308.427 218.609 308.822C217.522 309.33 216.039 309.386 215.317 308.292L222.756 304.823C222.656 304.552 222.485 304.129 222.363 303.868C220.872 300.67 217.562 299.592 214.67 300.941C211.777 302.29 210.316 305.461 211.817 308.68C213.308 311.877 216.716 312.883 219.609 311.534C221.349 310.723 222.945 309.317 223.279 307.307L220.382 306.831ZM214.478 306.38C214.109 304.963 215.102 303.97 215.929 303.585C216.799 303.179 218.12 303.172 218.872 304.331L214.478 306.38ZM227.287 301.148C226.566 299.604 227.128 298.707 228.194 298.21C229.216 297.733 230.26 298.041 230.899 299.411L233.424 304.827L236.448 303.417L233.618 297.349C232.269 294.456 230.174 293.711 227.89 294.776C226.672 295.344 225.812 296.566 225.745 297.842L225.055 296.363L222.032 297.773L226.768 307.931L229.792 306.521L227.287 301.148ZM238.353 290.162L236.537 286.269L233.536 287.668L235.351 291.562L233.502 292.424L234.618 294.817L236.467 293.954L240.088 301.72L243.09 300.32L239.469 292.555L241.6 291.561L240.485 289.168L238.353 290.162ZM250.226 284.626L247.224 286.025L251.961 296.183L254.963 294.784L250.226 284.626ZM245.078 282.445C245.534 283.424 246.78 283.823 247.802 283.346C248.846 282.859 249.276 281.679 248.819 280.7C248.343 279.678 247.171 279.324 246.149 279.801C245.126 280.277 244.611 281.444 245.078 282.445ZM267.909 282.524C268.598 284.003 267.989 285.479 266.706 286.077C265.422 286.675 263.91 286.215 263.21 284.715C262.521 283.235 263.129 281.813 264.434 281.205C265.652 280.637 267.209 281.023 267.909 282.524ZM273.359 286.205L266.046 270.522L263.045 271.922L266.199 278.687C265.263 277.985 263.823 278.021 262.539 278.619C259.929 279.836 258.587 282.978 260.109 286.24C261.61 289.46 264.869 290.429 267.479 289.212C268.762 288.613 269.705 287.512 269.769 286.343L270.357 287.605L273.359 286.205ZM274.399 273.354L271.397 274.753L276.134 284.911L279.136 283.512L274.399 273.354ZM269.251 271.173C269.707 272.152 270.953 272.551 271.975 272.074C273.019 271.587 273.449 270.407 272.992 269.428C272.515 268.406 271.344 268.052 270.322 268.529C269.299 269.005 268.784 270.172 269.251 271.173ZM282.43 275.435C281.71 273.89 282.271 272.993 283.337 272.496C284.359 272.019 285.403 272.327 286.042 273.697L288.567 279.113L291.591 277.704L288.761 271.635C287.412 268.742 285.317 267.998 283.033 269.063C281.815 269.631 280.955 270.853 280.888 272.128L280.198 270.649L277.175 272.059L281.912 282.217L284.935 280.807L282.43 275.435ZM298.807 261.972L296.991 258.079L293.989 259.478L295.805 263.372L293.956 264.234L295.072 266.627L296.921 265.764L300.542 273.53L303.543 272.13L299.922 264.365L302.054 263.371L300.938 260.978L298.807 261.972ZM310.737 265.386C309.497 265.964 308.027 265.538 307.368 264.124C306.718 262.732 307.336 261.331 308.576 260.753C309.86 260.155 311.308 260.591 311.957 261.984C312.616 263.397 312.02 264.788 310.737 265.386ZM312.116 268.344C314.987 267.005 316.428 263.791 314.937 260.594C313.436 257.375 310.068 256.456 307.197 257.795C304.304 259.144 302.886 262.294 304.388 265.513C305.879 268.711 309.223 269.693 312.116 268.344ZM318.71 252.691L316.894 248.798L313.893 250.197L315.708 254.091L313.859 254.953L314.975 257.346L316.824 256.483L320.445 264.249L323.447 262.849L319.826 255.084L321.957 254.09L320.842 251.697L318.71 252.691ZM334.81 257.55L337.811 256.151L333.075 245.993L330.073 247.392L330.6 248.523C329.256 247.8 327.688 248.24 327.013 248.554C324.425 249.761 322.79 253.013 324.301 256.254C325.812 259.495 329.354 260.333 331.943 259.126C332.704 258.771 334.088 257.649 334.272 256.397L334.81 257.55ZM327.433 254.793C326.754 253.336 327.569 251.791 328.852 251.192C330.092 250.614 331.736 250.96 332.436 252.46C333.146 253.983 332.344 255.443 331.104 256.021C329.821 256.619 328.113 256.251 327.433 254.793ZM333.289 239.166L340.602 254.849L343.626 253.439L336.313 237.757L333.289 239.166ZM353.927 248.636L356.929 247.236L352.192 237.078L349.19 238.478L349.718 239.609C348.374 238.885 346.805 239.325 346.131 239.64C343.542 240.847 341.907 244.098 343.419 247.339C344.93 250.58 348.472 251.418 351.06 250.211C351.821 249.856 353.205 248.734 353.389 247.483L353.927 248.636ZM346.551 245.879C345.871 244.421 346.686 242.876 347.97 242.278C349.21 241.699 350.854 242.045 351.554 243.546C352.264 245.068 351.461 246.528 350.222 247.106C348.938 247.705 347.23 247.336 346.551 245.879ZM108.604 377.146L100.338 381L100.014 380.304C99.4458 379.086 99.6113 378.135 100.655 377.648L101.765 377.131L100.416 374.238L99.3064 374.755C96.37 376.125 95.508 378.592 96.9686 381.724L97.2931 382.42L95.379 383.313L96.4947 385.706L98.4089 384.813L102.03 392.578L105.075 391.158L101.454 383.393L106.718 380.939L110.339 388.704L113.341 387.304L108.604 377.146ZM103.456 374.965C103.912 375.944 105.158 376.343 106.18 375.867C107.224 375.38 107.654 374.2 107.197 373.221C106.72 372.199 105.549 371.844 104.527 372.321C103.504 372.798 102.989 373.965 103.456 374.965ZM116.65 379.22C115.93 377.676 116.491 376.779 117.557 376.282C118.579 375.805 119.623 376.112 120.262 377.483L122.787 382.899L125.811 381.489L122.981 375.42C121.632 372.527 119.537 371.783 117.253 372.848C116.035 373.416 115.175 374.638 115.108 375.914L114.418 374.435L111.395 375.845L116.132 386.003L119.155 384.593L116.65 379.22ZM136.02 376.728L139.022 375.329L134.285 365.171L131.283 366.571L131.811 367.702C130.467 366.978 128.898 367.418 128.224 367.732C125.635 368.939 124 372.191 125.512 375.432C127.023 378.673 130.565 379.511 133.153 378.304C133.915 377.949 135.298 376.827 135.483 375.576L136.02 376.728ZM128.644 373.971C127.964 372.514 128.78 370.969 130.063 370.37C131.303 369.792 132.947 370.138 133.647 371.639C134.357 373.161 133.554 374.621 132.315 375.199C131.031 375.798 129.323 375.429 128.644 373.971ZM142.331 367.245C141.611 365.701 142.172 364.803 143.238 364.306C144.26 363.83 145.304 364.137 145.943 365.508L148.469 370.924L151.492 369.514L148.662 363.445C147.313 360.552 145.218 359.808 142.934 360.873C141.716 361.441 140.856 362.663 140.789 363.939L140.099 362.46L137.076 363.869L141.813 374.027L144.836 372.617L142.331 367.245ZM156.349 362.588C157.201 362.429 157.552 362.557 157.755 362.992C157.999 363.514 157.575 364.082 156.911 364.418C156.063 364.814 155.158 364.521 154.862 363.944L152.035 365.262C153.089 367.524 155.865 367.74 157.909 366.786C160.041 365.792 161.826 363.715 160.822 361.562C160.508 360.887 159.463 359.442 156.68 359.892L154.749 360.236C154.069 360.368 153.676 360.207 153.502 359.891C153.267 359.444 153.539 358.947 154.213 358.632C154.713 358.399 155.405 358.235 155.782 358.987L158.631 357.658C157.465 355.156 154.884 355.301 152.883 356.234C150.751 357.228 149.573 359.472 150.273 360.973C150.709 361.908 151.417 363.484 154.86 362.859L156.349 362.588ZM162.594 351.97L159.592 353.37L164.329 363.528L167.33 362.128L162.594 351.97ZM157.446 349.79C157.902 350.768 159.148 351.168 160.17 350.691C161.214 350.204 161.643 349.024 161.187 348.045C160.71 347.023 159.539 346.669 158.517 347.145C157.494 347.622 156.979 348.789 157.446 349.79ZM175.679 354.157C175.493 355.065 174.755 355.753 173.907 356.149C172.819 356.656 171.336 356.712 170.614 355.619L178.053 352.15C177.953 351.879 177.782 351.455 177.66 351.194C176.169 347.997 172.86 346.918 169.967 348.267C167.074 349.616 165.613 352.787 167.114 356.006C168.605 359.204 172.013 360.209 174.906 358.86C176.646 358.049 178.242 356.643 178.576 354.634L175.679 354.157ZM169.775 353.706C169.406 352.289 170.399 351.296 171.226 350.911C172.096 350.505 173.417 350.498 174.169 351.657L169.775 353.706ZM183.436 350.302C182.178 347.605 182.332 345.891 184.072 345.079C184.572 344.846 185.093 344.656 185.759 344.664L185.034 341.691C184.423 341.685 183.84 341.798 183.122 342.133C182.078 342.62 181.138 344.012 181.498 346.147L180.352 343.689L177.329 345.099L182.065 355.257L185.089 353.847L183.436 350.302ZM189.528 339.411L186.526 340.81L191.263 350.968L194.265 349.569L189.528 339.411ZM184.38 337.23C184.837 338.209 186.082 338.608 187.104 338.131C188.148 337.644 188.578 336.464 188.121 335.485C187.645 334.463 186.473 334.109 185.451 334.586C184.429 335.062 183.914 336.229 184.38 337.23ZM197.559 341.492C196.839 339.947 197.4 339.05 198.466 338.553C199.488 338.076 200.532 338.384 201.171 339.754L203.697 345.17L206.72 343.76L203.89 337.692C202.541 334.799 200.446 334.054 198.163 335.119C196.944 335.687 196.084 336.909 196.017 338.185L195.328 336.706L192.304 338.116L197.041 348.274L200.064 346.864L197.559 341.492ZM214.459 333.929C215.159 335.43 214.397 336.976 213.157 337.555C211.852 338.163 210.265 337.712 209.565 336.211C208.895 334.775 209.58 333.291 210.885 332.682C212.147 332.094 213.759 332.428 214.459 333.929ZM209.991 344.565C211.744 346.052 214.225 346.431 216.465 345.386C220.054 343.713 221.223 340.599 219.185 336.227L215.107 327.483L212.171 328.852L212.759 330.114C211.811 329.444 210.286 329.466 209.024 330.055C206.414 331.272 204.92 334.484 206.441 337.747C207.942 340.966 211.354 341.865 213.964 340.647C215.247 340.049 216.255 338.917 216.319 337.748C217.361 339.699 217.524 341.582 215.197 342.668C214.175 343.144 212.664 343.028 211.87 342.233L209.991 344.565ZM224.81 330.664C225.663 330.505 226.014 330.633 226.217 331.068C226.46 331.59 226.037 332.158 225.373 332.494C224.524 332.89 223.62 332.596 223.324 332.019L220.496 333.338C221.551 335.6 224.326 335.815 226.371 334.862C228.502 333.868 230.288 331.791 229.284 329.637C228.969 328.963 227.924 327.517 225.142 327.967L223.211 328.312C222.53 328.444 222.138 328.283 221.964 327.966C221.729 327.52 222 327.023 222.675 326.708C223.175 326.475 223.866 326.311 224.243 327.062L227.093 325.734C225.926 323.232 223.345 323.377 221.344 324.31C219.213 325.304 218.035 327.548 218.734 329.049C219.171 329.984 219.879 331.56 223.321 330.935L224.81 330.664ZM225.477 315.921L232.79 331.604L235.814 330.194L228.501 314.511L225.477 315.921ZM241.946 323.945C240.706 324.523 239.236 324.096 238.577 322.682C237.928 321.29 238.566 319.933 239.806 319.355C241.089 318.757 242.517 319.15 243.166 320.542C243.825 321.956 243.229 323.346 241.946 323.945ZM243.325 326.903C246.196 325.564 247.637 322.35 246.146 319.153C244.655 315.955 241.297 315.058 238.426 316.397C235.533 317.746 234.106 320.875 235.597 324.072C237.088 327.27 240.432 328.252 243.325 326.903ZM233.293 314.475C233.688 315.323 234.71 315.641 235.58 315.235C236.429 314.839 236.821 313.862 236.425 313.014C236.029 312.166 235.039 311.859 234.191 312.255C233.321 312.661 232.897 313.626 233.293 314.475ZM237.143 312.679C237.538 313.528 238.56 313.845 239.43 313.44C240.279 313.044 240.671 312.067 240.275 311.219C239.879 310.37 238.889 310.064 238.041 310.46C237.171 310.865 236.747 311.831 237.143 312.679ZM252.871 317.579C253.723 317.42 254.074 317.548 254.277 317.983C254.52 318.505 254.097 319.073 253.433 319.409C252.584 319.805 251.68 319.512 251.384 318.935L248.556 320.253C249.611 322.515 252.386 322.731 254.431 321.777C256.563 320.783 258.348 318.706 257.344 316.553C257.029 315.879 255.984 314.433 253.202 314.883L251.271 315.227C250.591 315.359 250.198 315.198 250.024 314.882C249.789 314.435 250.06 313.938 250.735 313.624C251.235 313.39 251.927 313.227 252.303 313.978L255.153 312.649C253.986 310.148 251.405 310.292 249.404 311.225C247.273 312.219 246.095 314.463 246.795 315.964C247.231 316.899 247.939 318.476 251.382 317.85L252.871 317.579ZM261.369 311.737C260.649 310.192 261.21 309.295 262.276 308.798C263.298 308.321 264.342 308.629 264.981 309.999L267.506 315.415L270.53 314.006L267.7 307.937C266.351 305.044 264.256 304.3 261.972 305.365C260.754 305.933 259.894 307.155 259.827 308.43L259.137 306.951L256.114 308.361L260.851 318.519L263.874 317.109L261.369 311.737ZM271.478 301.197L268.476 302.596L273.213 312.754L276.215 311.355L271.478 301.197ZM266.33 299.016C266.787 299.995 268.032 300.394 269.054 299.917C270.098 299.43 270.528 298.25 270.071 297.271C269.595 296.249 268.423 295.895 267.401 296.372C266.379 296.848 265.864 298.015 266.33 299.016ZM279.509 303.278C278.789 301.733 279.35 300.836 280.416 300.339C281.438 299.862 282.482 300.17 283.121 301.54L285.647 306.956L288.67 305.547L285.84 299.478C284.491 296.585 282.396 295.841 280.113 296.906C278.894 297.474 278.034 298.696 277.967 299.971L277.278 298.492L274.254 299.902L278.991 310.06L282.014 308.65L279.509 303.278ZM296.409 295.715C297.109 297.216 296.347 298.763 295.107 299.341C293.802 299.949 292.215 299.498 291.515 297.997C290.845 296.561 291.53 295.077 292.835 294.468C294.097 293.88 295.709 294.214 296.409 295.715ZM291.941 306.351C293.694 307.838 296.175 308.217 298.415 307.173C302.004 305.499 303.174 302.385 301.135 298.013L297.057 289.269L294.121 290.638L294.709 291.9C293.761 291.23 292.236 291.252 290.974 291.841C288.364 293.058 286.87 296.27 288.391 299.533C289.892 302.752 293.304 303.651 295.914 302.434C297.197 301.835 298.205 300.703 298.269 299.534C299.311 301.485 299.475 303.368 297.147 304.454C296.125 304.93 294.614 304.814 293.82 304.019L291.941 306.351Z"/><path fill="#fff" d="M106.896 405.313L112.137 416.553L113.654 415.846L111.41 411.033L115.407 409.169L114.745 407.75L110.748 409.614L109.075 406.025L114.116 403.674L113.454 402.255L106.896 405.313ZM123.376 411.511C125.545 410.499 126.635 408.065 125.509 405.651C124.383 403.236 121.841 402.555 119.671 403.566C117.501 404.578 116.406 406.956 117.531 409.37C118.657 411.785 121.206 412.523 123.376 411.511ZM122.706 410.076C121.32 410.722 119.73 410.252 119 408.686C118.285 407.152 118.961 405.665 120.348 405.018C121.702 404.387 123.309 404.809 124.024 406.343C124.755 407.909 124.06 409.444 122.706 410.076ZM116.125 402.181C116.392 402.752 117.015 402.938 117.586 402.672C118.124 402.421 118.398 401.816 118.132 401.245C117.866 400.674 117.226 400.496 116.688 400.747C116.117 401.013 115.859 401.61 116.125 402.181ZM118.882 400.895C119.149 401.466 119.772 401.653 120.343 401.386C120.914 401.12 121.172 400.523 120.905 399.952C120.639 399.381 120.016 399.195 119.445 399.461C118.874 399.728 118.616 400.324 118.882 400.895ZM129.463 405.097C128.52 403.075 128.41 401.219 129.878 400.535C130.188 400.39 130.626 400.265 131.125 400.271L130.707 398.778C130.427 398.73 129.787 398.849 129.249 399.1C128.254 399.564 127.763 400.429 128.003 401.965L127.204 400.252L125.72 400.945L129.272 408.563L130.757 407.871L129.463 405.097ZM140.868 399.362C141.5 399.227 142.078 399.275 142.328 399.853C142.578 400.432 142.313 401.012 141.634 401.388C141.176 401.642 140.747 401.743 140.305 401.69C139.846 401.686 139.483 401.418 139.282 401.115L137.928 401.746C138.707 403.289 140.537 403.509 141.908 402.87C143.49 402.132 144.465 400.644 143.795 399.209C143.392 398.344 142.536 397.572 140.787 397.911L139.532 398.158C139.087 398.226 138.652 398.231 138.361 397.989C138.203 397.864 138.112 397.668 138.063 397.393C137.987 396.932 138.315 396.442 138.886 396.176C139.473 395.902 140.132 395.952 140.48 396.485L141.899 395.823C141.046 394.334 139.541 394.301 138.252 394.902C136.882 395.541 136.128 396.905 136.514 398.076C137.046 399.556 138.148 399.876 139.71 399.604L140.868 399.362ZM152.526 390.014C153.635 389.496 154.629 389.966 155.214 391.223L157.223 395.529L158.707 394.837L156.653 390.433C155.649 388.279 154.051 387.535 152.142 388.425C151.408 388.767 150.3 389.542 150.23 391.223C149.483 390.559 148.578 390.365 147.547 390.667C147.263 390.74 146.978 390.853 146.692 391.006C146.095 391.344 145.177 392.229 145.181 393.26L144.649 392.118L143.164 392.81L146.717 400.428L148.201 399.736L146.284 395.625C145.539 394.026 146.31 392.912 147.37 392.418C148.366 391.954 149.368 392.4 149.954 393.656L151.97 397.979L153.454 397.287L151.537 393.176C150.944 391.903 151.269 390.599 152.526 390.014ZM167.123 390.913L168.591 390.228L165.038 382.61L163.57 383.295L164.103 384.436C163.177 383.815 161.879 383.884 160.819 384.379C158.731 385.353 157.667 387.715 158.801 390.146C159.927 392.56 162.435 393.297 164.523 392.324C165.584 391.829 166.465 390.823 166.575 389.738L167.123 390.913ZM165.319 387.087C166.072 388.702 165.331 390.18 163.977 390.811C162.606 391.45 161.01 390.923 160.31 389.422C159.611 387.921 160.256 386.409 161.626 385.77C162.866 385.192 164.558 385.456 165.319 387.087ZM157.958 382.376C158.407 383.339 159.483 383.73 160.446 383.282C161.425 382.825 161.849 381.734 161.4 380.771C160.944 379.792 159.827 379.399 158.848 379.856C157.886 380.305 157.502 381.397 157.958 382.376ZM158.823 381.973C158.587 381.467 158.795 380.933 159.252 380.72C159.757 380.485 160.3 380.669 160.536 381.174C160.749 381.631 160.549 382.181 160.043 382.417C159.586 382.63 159.036 382.43 158.823 381.973ZM178.864 385.636C181.034 384.625 182.123 382.19 180.997 379.776C179.871 377.361 177.329 376.68 175.159 377.692C172.99 378.704 171.894 381.081 173.02 383.496C174.146 385.91 176.694 386.648 178.864 385.636ZM178.195 384.201C176.808 384.847 175.218 384.377 174.488 382.811C173.773 381.278 174.45 379.79 175.836 379.144C177.19 378.512 178.798 378.935 179.513 380.468C180.243 382.034 179.549 383.569 178.195 384.201ZM182.467 379.09C183.593 381.505 186.191 382.22 188.36 381.208C189.535 380.661 190.382 379.709 190.735 378.592L189.152 378.178C188.915 378.864 188.392 379.446 187.691 379.773C186.32 380.412 184.643 379.923 183.935 378.406C183.22 376.872 183.962 375.355 185.333 374.716C186.034 374.388 186.808 374.345 187.478 374.589L188.163 373.118C187.08 372.67 185.83 372.716 184.656 373.264C182.486 374.275 181.341 376.676 182.467 379.09ZM192.676 373.992C191.915 372.361 192.914 371.18 193.958 370.694C195.002 370.207 196.11 370.623 196.696 371.88L198.704 376.186L200.188 375.494L198.135 371.089C197.147 368.928 195.385 368.26 193.477 369.15C192.661 369.531 191.587 370.508 191.573 371.627L189.108 366.341L187.624 367.034L193.108 378.796L194.593 378.103L192.676 373.992ZM212.618 361.992C213.727 361.475 214.721 361.945 215.307 363.201L217.315 367.508L218.8 366.816L216.746 362.411C215.742 360.258 214.143 359.513 212.235 360.403C211.5 360.746 210.392 361.521 210.322 363.202C209.575 362.537 208.671 362.343 207.64 362.645C207.356 362.718 207.071 362.831 206.785 362.984C206.188 363.322 205.27 364.207 205.274 365.238L204.741 364.096L203.257 364.788L206.809 372.407L208.294 371.715L206.377 367.604C205.631 366.005 206.403 364.89 207.463 364.396C208.458 363.932 209.461 364.378 210.046 365.634L212.062 369.957L213.547 369.265L211.63 365.154C211.036 363.882 211.362 362.578 212.618 361.992ZM220.104 360.845C219.682 359.472 220.311 358.266 221.568 357.68C222.807 357.102 224.055 357.434 224.835 358.639L220.104 360.845ZM226.569 358.525C225.444 356.111 223.113 355.33 220.944 356.342C218.774 357.354 217.76 359.694 218.886 362.108C220.012 364.523 222.479 365.299 224.648 364.287C226.133 363.595 227.191 362.287 227.213 360.628C226.721 360.639 226.187 360.729 225.712 360.732C225.629 361.705 224.987 362.5 224.074 362.926C222.768 363.535 221.425 363.208 220.644 362.003L226.827 359.12C226.76 358.933 226.653 358.705 226.569 358.525ZM236.264 358.672L237.748 357.98L232.263 346.218L230.779 346.91L233.244 352.195C232.335 351.567 231.069 351.621 229.943 352.146C227.855 353.119 226.825 355.467 227.958 357.897C229.084 360.312 231.576 361.056 233.664 360.083C234.725 359.588 235.606 358.582 235.716 357.497L236.264 358.672ZM234.46 354.846C235.213 356.461 234.472 357.939 233.118 358.57C231.747 359.209 230.168 358.675 229.468 357.174C228.768 355.673 229.397 354.168 230.767 353.529C232.007 352.951 233.699 353.215 234.46 354.846ZM239.158 351.96C238.736 350.588 239.365 349.381 240.621 348.795C241.861 348.217 243.108 348.549 243.889 349.754L239.158 351.96ZM245.623 349.64C244.497 347.226 242.167 346.446 239.997 347.457C237.828 348.469 236.814 350.809 237.939 353.223C239.065 355.638 241.532 356.414 243.702 355.402C245.187 354.71 246.245 353.402 246.266 351.744C245.775 351.754 245.241 351.844 244.766 351.848C244.683 352.82 244.041 353.615 243.127 354.041C241.822 354.65 240.478 354.323 239.698 353.118L245.881 350.235C245.813 350.048 245.707 349.82 245.623 349.64ZM243.813 340.832L249.298 352.594L250.782 351.902L245.297 340.14L243.813 340.832ZM254.585 346.335C255.217 346.199 255.795 346.248 256.045 346.826C256.295 347.405 256.03 347.985 255.351 348.361C254.893 348.615 254.463 348.716 254.022 348.663C253.563 348.659 253.2 348.391 252.999 348.088L251.645 348.719C252.424 350.262 254.254 350.481 255.625 349.842C257.207 349.105 258.182 347.617 257.512 346.182C257.109 345.317 256.252 344.545 254.504 344.884L253.249 345.131C252.804 345.199 252.369 345.204 252.078 344.962C251.92 344.837 251.829 344.641 251.78 344.366C251.704 343.905 252.031 343.415 252.602 343.149C253.19 342.875 253.849 342.925 254.196 343.458L255.616 342.796C254.763 341.307 253.258 341.274 251.969 341.875C250.598 342.514 249.844 343.878 250.231 345.049C250.763 346.529 251.865 346.849 253.427 346.577L254.585 346.335ZM258.937 338.824L257.598 335.953L256.113 336.646L257.452 339.517L256.082 340.156L256.667 341.412L258.038 340.773L261.005 347.135L262.489 346.443L259.522 340.081L261.137 339.327L260.552 338.071L258.937 338.824ZM269.226 343.5C271.396 342.488 272.485 340.054 271.359 337.64C270.233 335.225 267.691 334.544 265.521 335.555C263.351 336.567 262.256 338.945 263.382 341.359C264.507 343.774 267.056 344.512 269.226 343.5ZM268.556 342.064C267.17 342.711 265.58 342.241 264.85 340.675C264.135 339.141 264.812 337.654 266.198 337.007C267.552 336.376 269.159 336.798 269.874 338.332C270.605 339.898 269.91 341.433 268.556 342.064ZM275.313 337.086C274.37 335.064 274.26 333.208 275.728 332.524C276.038 332.379 276.476 332.254 276.975 332.26L276.557 330.767C276.277 330.719 275.637 330.838 275.099 331.089C274.104 331.553 273.613 332.418 273.853 333.954L273.054 332.241L271.57 332.934L275.122 340.552L276.607 339.86L275.313 337.086ZM287.403 334.825L288.871 334.141L285.319 326.522L283.851 327.207L284.383 328.349C283.458 327.728 282.16 327.797 281.099 328.291C279.011 329.265 277.948 331.628 279.081 334.058C280.207 336.473 282.716 337.21 284.804 336.236C285.864 335.741 286.745 334.735 286.855 333.651L287.403 334.825ZM285.599 330.999C286.352 332.614 285.611 334.092 284.257 334.723C282.887 335.362 281.291 334.835 280.591 333.335C279.891 331.834 280.536 330.321 281.907 329.682C283.147 329.104 284.838 329.368 285.599 330.999ZM294.307 317.286L293.475 317.674C291.419 318.633 291.194 320.406 292.129 322.413L292.487 323.18L291.019 323.864L291.605 325.12L293.073 324.436L296.04 330.798L297.54 330.098L294.574 323.736L296.335 322.914L295.75 321.658L293.988 322.48L293.63 321.713C293.174 320.734 292.897 319.672 294.137 319.094L294.969 318.706L294.307 317.286ZM304.402 327.097C306.572 326.085 307.661 323.651 306.535 321.237C305.409 318.822 302.867 318.141 300.697 319.153C298.528 320.164 297.432 322.542 298.558 324.957C299.683 327.371 302.232 328.109 304.402 327.097ZM303.732 325.662C302.346 326.308 300.756 325.838 300.026 324.272C299.311 322.738 299.988 321.251 301.374 320.604C302.728 319.973 304.335 320.395 305.05 321.929C305.781 323.495 305.086 325.03 303.732 325.662ZM297.152 317.767C297.418 318.338 298.041 318.524 298.612 318.258C299.15 318.007 299.424 317.402 299.158 316.832C298.892 316.261 298.253 316.082 297.714 316.333C297.143 316.599 296.885 317.196 297.152 317.767ZM299.909 316.482C300.175 317.053 300.798 317.239 301.369 316.972C301.94 316.706 302.198 316.109 301.931 315.538C301.665 314.967 301.042 314.781 300.471 315.047C299.9 315.314 299.642 315.911 299.909 316.482ZM310.49 320.684C309.546 318.661 309.436 316.805 310.904 316.121C311.214 315.976 311.652 315.851 312.151 315.857L311.733 314.364C311.453 314.316 310.813 314.435 310.275 314.686C309.28 315.15 308.789 316.015 309.029 317.551L308.23 315.838L306.746 316.531L310.298 324.149L311.783 323.457L310.49 320.684ZM315.468 316.376C315.047 315.003 315.676 313.797 316.932 313.211C318.171 312.633 319.419 312.965 320.199 314.17L315.468 316.376ZM321.934 314.056C320.808 311.642 318.478 310.861 316.308 311.873C314.138 312.885 313.124 315.225 314.25 317.639C315.376 320.054 317.843 320.83 320.013 319.818C321.497 319.126 322.556 317.818 322.577 316.159C322.085 316.17 321.551 316.26 321.076 316.263C320.993 317.236 320.351 318.031 319.438 318.457C318.133 319.066 316.789 318.739 316.008 317.534L322.191 314.651C322.124 314.464 322.017 314.236 321.934 314.056ZM324.111 308.433L322.772 305.562L321.288 306.254L322.627 309.125L321.256 309.764L321.842 311.02L323.212 310.381L326.179 316.744L327.664 316.051L324.697 309.689L326.312 308.936L325.726 307.68L324.111 308.433ZM336.885 311.751L338.354 311.067L334.801 303.448L333.333 304.133L333.865 305.275C332.94 304.654 331.642 304.723 330.581 305.217C328.493 306.191 327.43 308.554 328.564 310.984C329.69 313.399 332.198 314.136 334.286 313.162C335.346 312.668 336.228 311.661 336.338 310.577L336.885 311.751ZM335.081 307.925C335.835 309.54 335.094 311.018 333.74 311.649C332.369 312.288 330.773 311.761 330.073 310.261C329.373 308.76 330.019 307.247 331.389 306.608C332.629 306.03 334.321 306.294 335.081 307.925ZM342.49 310.469C342.332 310.641 341.688 311.518 341.554 311.699C342.92 312.711 344.536 312.811 345.955 312.15C348.484 310.971 349.476 308.839 347.802 305.25L344.79 298.79L343.322 299.475L343.877 300.666C342.952 300.045 341.631 300.065 340.57 300.559C338.482 301.533 337.442 303.945 338.568 306.359C339.694 308.774 342.187 309.478 344.275 308.504C345.352 308.002 346.249 306.988 346.296 305.854C346.327 305.919 346.366 305.96 346.396 306.025C347.575 308.554 346.949 309.978 345.301 310.747C344.453 311.142 343.342 311.104 342.49 310.469ZM345.086 303.3C345.846 304.931 344.968 306.413 343.728 306.991C342.358 307.63 340.808 307.201 340.077 305.635C339.385 304.151 340.008 302.589 341.378 301.95C342.732 301.319 344.325 301.669 345.086 303.3ZM352.965 294.978L351.496 295.663L355.049 303.281L356.517 302.597L352.965 294.978ZM349.894 292.994C350.161 293.565 350.8 293.744 351.371 293.477C351.942 293.211 352.216 292.607 351.95 292.036C351.684 291.465 351.044 291.286 350.473 291.552C349.902 291.819 349.628 292.423 349.894 292.994ZM369.274 296.648L370.742 295.964L367.189 288.345L365.721 289.03L366.254 290.172C365.328 289.551 364.03 289.62 362.97 290.114C360.881 291.088 359.818 293.451 360.952 295.882C362.078 298.296 364.586 299.033 366.674 298.059C367.735 297.565 368.616 296.558 368.726 295.474L369.274 296.648ZM367.47 292.822C368.223 294.437 367.482 295.915 366.128 296.546C364.757 297.185 363.161 296.659 362.461 295.158C361.761 293.657 362.407 292.144 363.777 291.505C365.017 290.927 366.709 291.191 367.47 292.822ZM367.742 283.043L373.226 294.805L374.711 294.113L369.226 282.351L367.742 283.043ZM371.709 281.193L377.193 292.955L378.678 292.263L373.193 280.501L371.709 281.193ZM387.196 288.291L388.664 287.606L385.112 279.988L383.644 280.673L384.176 281.815C383.251 281.193 381.953 281.263 380.892 281.757C378.804 282.731 377.741 285.093 378.874 287.524C380 289.938 382.509 290.675 384.597 289.702C385.657 289.207 386.538 288.201 386.648 287.116L387.196 288.291ZM385.392 284.465C386.145 286.08 385.404 287.558 384.05 288.189C382.68 288.828 381.084 288.301 380.384 286.8C379.684 285.299 380.329 283.787 381.7 283.148C382.94 282.57 384.631 282.834 385.392 284.465ZM396.324 282.605C397.225 283.217 398.546 283.197 399.606 282.703C401.695 281.729 402.742 279.334 401.617 276.919C400.483 274.488 398.023 273.769 395.918 274.75C394.809 275.268 393.954 276.203 393.851 277.303L391.387 272.017L389.902 272.71L395.387 284.472L396.871 283.779L396.324 282.605ZM395.1 279.938C394.339 278.307 395.225 276.841 396.465 276.263C397.835 275.624 399.392 276.11 400.092 277.61C400.792 279.111 400.186 280.665 398.815 281.304C397.461 281.935 395.853 281.553 395.1 279.938ZM405.567 276.348C404.624 274.325 404.513 272.47 405.981 271.786C406.291 271.641 406.73 271.516 407.229 271.522L406.811 270.029C406.53 269.981 405.891 270.1 405.352 270.351C404.357 270.815 403.866 271.679 404.106 273.216L403.308 271.503L401.823 272.195L405.376 279.814L406.86 279.122L405.567 276.348ZM417.657 274.087L419.125 273.402L415.572 265.784L414.104 266.469L414.637 267.611C413.711 266.989 412.413 267.059 411.353 267.553C409.264 268.527 408.201 270.889 409.335 273.32C410.461 275.735 412.969 276.471 415.057 275.498C416.118 275.003 416.999 273.997 417.109 272.912L417.657 274.087ZM415.853 270.261C416.606 271.876 415.865 273.354 414.511 273.985C413.14 274.624 411.544 274.097 410.844 272.596C410.145 271.096 410.79 269.583 412.16 268.944C413.4 268.366 415.092 268.63 415.853 270.261ZM421.177 267.441C420.424 265.826 421.219 264.72 422.296 264.218C423.34 263.731 424.318 264.168 424.919 265.457L426.928 269.764L428.412 269.072L426.358 264.667C425.354 262.514 423.756 261.769 421.847 262.659C421.015 263.047 420.088 263.956 420.074 265.075L419.541 263.933L418.057 264.625L421.609 272.244L423.094 271.552L421.177 267.441ZM432.122 263.548C432.754 263.413 433.332 263.461 433.582 264.039C433.832 264.618 433.567 265.198 432.888 265.574C432.43 265.828 432.001 265.929 431.559 265.876C431.1 265.872 430.737 265.604 430.536 265.301L429.182 265.932C429.961 267.475 431.791 267.695 433.162 267.056C434.744 266.318 435.719 264.83 435.049 263.395C434.646 262.53 433.79 261.758 432.041 262.097L430.786 262.344C430.341 262.412 429.906 262.417 429.615 262.175C429.457 262.05 429.366 261.854 429.317 261.579C429.241 261.118 429.569 260.628 430.14 260.362C430.727 260.088 431.386 260.138 431.734 260.671L433.153 260.009C432.3 258.52 430.795 258.487 429.506 259.088C428.136 259.727 427.382 261.091 427.768 262.262C428.3 263.742 429.402 264.062 430.964 263.79L432.122 263.548ZM435.677 261.017C436.803 263.431 439.401 264.146 441.571 263.134C442.745 262.587 443.593 261.635 443.945 260.518L442.362 260.104C442.126 260.79 441.603 261.372 440.901 261.699C439.531 262.338 437.853 261.849 437.146 260.332C436.431 258.798 437.173 257.281 438.543 256.642C439.244 256.314 440.019 256.271 440.688 256.515L441.373 255.044C440.29 254.596 439.04 254.642 437.866 255.19C435.696 256.201 434.552 258.602 435.677 261.017ZM445.886 255.918C445.126 254.287 446.124 253.106 447.168 252.62C448.212 252.133 449.32 252.55 449.906 253.806L451.914 258.112L453.399 257.42L451.345 253.016C450.357 250.855 448.596 250.186 446.687 251.076C445.871 251.457 444.798 252.434 444.783 253.553L442.319 248.267L440.834 248.96L446.319 260.722L447.803 260.029L445.886 255.918ZM454.707 251.448C454.285 250.075 454.914 248.869 456.17 248.283C457.41 247.705 458.657 248.037 459.438 249.242L454.707 251.448ZM461.172 249.128C460.046 246.714 457.716 245.933 455.546 246.945C453.377 247.957 452.363 250.297 453.488 252.711C454.614 255.125 457.081 255.902 459.251 254.89C460.736 254.198 461.794 252.89 461.815 251.231C461.324 251.242 460.79 251.332 460.315 251.335C460.232 252.307 459.59 253.103 458.676 253.529C457.371 254.138 456.027 253.811 455.247 252.606L461.43 249.723C461.362 249.536 461.256 249.308 461.172 249.128ZM465.038 248.616C464.095 246.594 463.984 244.738 465.453 244.054C465.763 243.909 466.201 243.784 466.7 243.79L466.282 242.297C466.001 242.249 465.362 242.368 464.823 242.619C463.828 243.083 463.338 243.948 463.577 245.484L462.779 243.771L461.294 244.464L464.847 252.082L466.331 251.39L465.038 248.616ZM469.817 248.732C470.091 249.319 470.778 249.515 471.349 249.249C471.936 248.975 472.228 248.322 471.954 247.735C471.68 247.148 470.985 246.935 470.398 247.209C469.827 247.476 469.543 248.144 469.817 248.732Z"/><path fill="#000" fill-opacity=".38" d="M221.432 448.111L228.626 475.1L201.133 467.298L221.432 448.111Z"/><path fill="#000" fill-opacity=".38" d="M298.661 372.377L305.855 399.366L278.362 391.564L298.661 372.377Z"/><path fill="#000" fill-opacity=".38" d="M501.247 293.357L508.441 320.346L480.948 312.544L501.247 293.357Z"/><path fill="#000" fill-opacity=".38" d="M437.417 206.163L444.611 233.153L417.118 225.35L437.417 206.163Z"/><path fill="#000" fill-opacity=".38" d="M397.632 319.605L404.826 346.595L377.333 338.792L397.632 319.605Z"/><path fill="#000" fill-opacity=".38" d="M314.037 268.11L321.231 295.099L293.738 287.297L314.037 268.11Z"/><path stroke="#5447FF" d="M83.2441 311.965L87.7389 299.615L100.088 304.11L95.5936 316.46L83.2441 311.965Z"/><path stroke="#5447FF" d="M157.341 203.486L161.836 191.137L174.186 195.632L169.691 207.981L157.341 203.486Z"/><path stroke="#5447FF" d="M331.572 196.167L336.067 183.818L348.417 188.313L343.922 200.662L331.572 196.167Z"/><path stroke="#5447FF" d="M392.981 93.6057L397.476 81.2561L409.826 85.751L405.331 98.1005L392.981 93.6057Z"/><path stroke="#5447FF" d="M83.2441 311.965L87.7389 299.615L100.088 304.11L95.5936 316.46L83.2441 311.965Z"/><defs><filter id="filter0_d_2_155" width="633.021" height="439.546" x="68.537" y="97.331" color-interpolation-filters="sRGB" filterUnits="userSpaceOnUse"><feFlood flood-opacity="0" result="BackgroundImageFix"/><feColorMatrix in="SourceAlpha" result="hardAlpha" type="matrix" values="0 0 0 0 0 0 0 0 0 0 0 0 0 0 0 0 0 0 127 0"/><feOffset dy="4"/><feGaussianBlur stdDeviation="2"/><feComposite in2="hardAlpha" operator="out"/><feColorMatrix type="matrix" values="0 0 0 0 0.329412 0 0 0 0 0.278431 0 0 0 0 1 0 0 0 0.25 0"/><feBlend in2="BackgroundImageFix" mode="normal" result="effect1_dropShadow_2_155"/><feBlend in="SourceGraphic" in2="effect1_dropShadow_2_155" mode="normal" result="shape"/></filter><linearGradient id="paint0_linear_2_155" x1="370.893" x2="892.393" y1="349.259" y2="784.759" gradientUnits="userSpaceOnUse"><stop stop-color="#5447FF"/><stop offset="1" stop-color="#2819FF"/></linearGradient><linearGradient id="paint1_linear_2_155" x1="370.893" x2="892.393" y1="349.259" y2="784.759" gradientUnits="userSpaceOnUse"><stop stop-color="#5447FF"/><stop offset="1" stop-color="#2819FF"/></linearGradient></defs></svg>