<svg width="36" height="36" viewBox="0 0 36 36" fill="none" xmlns="http://www.w3.org/2000/svg">
<g clip-path="url(#clip0_13_64)">
<path d="M36 18.1101C36 8.10656 27.9405 -0.00244141 18 -0.00244141C8.055 -0.000191406 -0.00450134 8.10656 -0.00450134 18.1123C-0.00450134 27.1506 6.579 34.6431 15.183 36.0021V23.3458H10.6155V18.1123H15.1875V14.1186C15.1875 9.58031 17.8762 7.07381 21.987 7.07381C23.958 7.07381 26.0167 7.42706 26.0167 7.42706V11.8821H23.7465C21.5122 11.8821 20.8147 13.2793 20.8147 14.7126V18.1101H25.8052L25.0087 23.3436H20.8125V35.9998C29.4165 34.6408 36 27.1483 36 18.1101Z" fill="white"/>
</g>
<defs>
<clipPath id="clip0_13_64">
<rect width="36" height="36" fill="white"/>
</clipPath>
</defs>
</svg>
