<svg width="36" height="36" viewBox="0 0 36 36" fill="none" xmlns="http://www.w3.org/2000/svg">
<g clip-path="url(#clip0_13_68)">
<path d="M18.1147 4.49756H18.315C20.1645 4.50431 29.5357 4.57181 32.0625 5.25131C32.8264 5.45869 33.5224 5.86291 34.0811 6.42358C34.6398 6.98424 35.0416 7.68172 35.2463 8.44631C35.4735 9.30131 35.6333 10.4331 35.7412 11.6008L35.7638 11.8348L35.8132 12.4198L35.8312 12.6538C35.9775 14.7103 35.9955 16.6363 35.9977 17.0571V17.2258C35.9955 17.6623 35.9753 19.7188 35.8132 21.8608L35.7952 22.0971L35.775 22.3311C35.6625 23.6181 35.496 24.8961 35.2463 25.8366C35.0422 26.6015 34.6406 27.2993 34.0818 27.86C33.5231 28.4208 32.8267 28.8248 32.0625 29.0316C29.4525 29.7336 19.5322 29.7831 18.1575 29.7853H17.838C17.1427 29.7853 14.2673 29.7718 11.2522 29.6683L10.8698 29.6548L10.674 29.6458L10.2892 29.6301L9.9045 29.6143C7.407 29.5041 5.02875 29.3263 3.933 29.0293C3.1691 28.8227 2.4729 28.4191 1.91413 27.8587C1.35536 27.2984 0.953655 26.601 0.74925 25.8366C0.4995 24.8983 0.333 23.6181 0.2205 22.3311L0.2025 22.0948L0.1845 21.8608C0.0734571 20.3362 0.0119247 18.8084 0 17.2798L0 17.0031C0.0045 16.5193 0.0225 14.8476 0.144 13.0026L0.15975 12.7708L0.1665 12.6538L0.1845 12.4198L0.234 11.8348L0.2565 11.6008C0.3645 10.4331 0.52425 9.29906 0.7515 8.44631C0.955561 7.68142 1.35712 6.98361 1.9159 6.42284C2.47469 5.86208 3.17108 5.45807 3.93525 5.25131C5.031 4.95881 7.40925 4.77881 9.90675 4.66631L10.2892 4.65056L10.6762 4.63706L10.8698 4.63031L11.2545 4.61456C13.3958 4.54565 15.5381 4.5074 17.6805 4.49981H18.1147V4.49756ZM14.4 11.7201V22.5606L23.7533 17.1426L14.4 11.7201Z" fill="white"/>
</g>
<defs>
<clipPath id="clip0_13_68">
<rect width="36" height="36" fill="white"/>
</clipPath>
</defs>
</svg>
